<?xml version="1.0" encoding="utf-8"?>
<svg xmlns="http://www.w3.org/2000/svg" x="0px" y="0px" width="250px" height="250px">
<path fill="#DDE1EE" d="M125,43.7c-44.8,0-81.3,36.5-81.3,81.3s36.5,81.3,81.3,81.3c44.8,0,81.2-36.5,81.2-81.3S169.8,43.7,125,43.7
	z"/>
<path fill="#FFFFFF" d="M125,48.5l4.1,29.9l9.2-28.7l-1.2,30.1l14.1-26.7l-6.4,29.5l18.5-23.8l-11.4,27.9l22.3-20.3l-16.1,25.5
	l25.5-16.1l-20.3,22.3l27.9-11.4l-23.8,18.5l29.5-6.4l-26.7,14.1l30.1-1.2l-28.7,9.2l29.9,4.1l-29.9,4.1l28.7,9.2l-30.1-1.2
	l26.7,14.1l-29.5-6.4l23.8,18.5l-27.9-11.4l20.3,22.3l-25.5-16.1l16.1,25.5l-22.3-20.3l11.4,27.9l-18.5-23.8l6.4,29.5l-14.1-26.7
	l1.2,30.1l-9.2-28.7l-4.1,29.9l-4.1-29.9l-9.2,28.7l1.2-30.1l-14.1,26.7l6.4-29.5l-18.6,24l11.5-28.1l-22.3,20.3l16.1-25.5
	l-25.5,16.1l20.3-22.3l-27.9,11.4l23.8-18.5l-29.5,6.4l26.7-14.1l-30.1,1.2l28.7-9.2L48.5,125l29.9-4.1l-28.7-9.2l30.1,1.2L53,98.8
	l29.5,6.4L58.7,86.7l27.9,11.4L66.4,75.8l25.5,16.1L75.8,66.4l22.3,20.3L86.7,58.7l18.5,23.8l-6.4-29.5l14.1,26.7l-1.2-30.1
	l9.2,28.7L125,48.5z M242.1,125c0,64.7-52.4,117.1-117.1,117.1C60.3,242.1,7.9,189.7,7.9,125C7.9,60.3,60.3,7.9,125,7.9
	C189.7,7.9,242.1,60.3,242.1,125z M204.2,125c0-43.7-35.5-79.2-79.2-79.2c-43.7,0-79.2,35.5-79.2,79.2s35.5,79.2,79.2,79.2
	C168.7,204.2,204.2,168.7,204.2,125z"/>
<path fill="#A29061" d="M163.3,97.8l15.2-9.8c-0.8-0.8-2.8-0.5-6.3,0.7c-3.6,1.2-13,6-13,6c1.7-2,6.8-6.6,9.8-8.3
	c-0.8-0.9-2.9-0.1-3.6,0.1c-2.3,0.7-9.2,4-11.7,4.6c0.3-0.5,3-2.9,3.2-3.2c-1.4-0.6-1.8-0.7-3.6-0.1c-2.8,0.9-12,7.9-14.5,11.8
	c-4.5,1.3-16,8.1-23.6,25.5c-1.3-3-3.4-11.1-2.1-23.3c0,0-1.4-2.5-3.2-6.9C108,90.5,97,62.4,99.1,56.1c-0.9,0.4-1.5,1.3-2.1,2.9
	c-1.3,3.3-2.1,9.3-0.4,17.1c0,0-6.2-9.6-7.1-18.8c-1.5,2.4-2.3,3.3-2.4,7.6c-0.2,3.9,0.8,10.7,3,15.4c-0.7-1-6.2-8.8-7.2-10.9
	c-1.1-2.2-1.3-3.1-1.3-3.1c-0.8,0.9-1.3,2.2-1.4,3.8c-0.2,2.3,1.7,13.8,6.3,20.5c-0.4-0.5-4.2-4.3-6.5-7.5c-2.5-3.3-5.7-7.8-5.7-7.8
	c-0.3,1.4-0.3,0.9-0.5,3.8c-0.3,4,3.8,14.3,8.5,18.6c-0.9-0.4-9.9-7.7-10.7-8.4c-0.1,1.8,0.5,7,4.7,11.7c4.3,4.6,6,6.7,6,6.7
	c-0.7-0.4-4.9-2.9-5.3-3.2c0.3,1.3,1.1,3.4,1.5,4.2c0.4,0.8,1.8,3.7,5.5,7c-0.7-0.2-4.2-1-5.4-3.9c0.1,1.9,0.4,4.8,3.6,8.4
	c0.9,2.4,8,22.6,15,26.6c-0.2,0.3-0.4,0.9-0.4,0.9c-8.1,2.9-21.9,4-30.2,3c0.6,0.8,1.4,2,2.4,3.5l10.9-0.9l-10.1,2
	c0.6,0.8,1.3,1.7,2.1,2.6l9.9-3l-8.9,4.1c0.7,0.8,1.5,1.6,2.3,2.4l8.8-4.6l-7.8,5.5c0.7,0.6,1.4,1.3,2.2,1.9L87,159l-7.7,5.9
	c0.9,0.6,1.9,1.3,3,1.9l8.3-5.7l-6.4,6.7c0.9,0.5,1.8,0.8,2.8,1.2c0.5,0.2,7.6-6.7,7.6-6.7s-4.9,7.6-4.4,7.7
	c0.8,0.2,1.7,0.4,2.5,0.6c0.6,0,5.7-7.7,5.7-7.7s-2.8,7.4-2.8,8.1c0.9,0.1,1.7,0.3,2.7,0.4l3.9-7.7l2.5-0.1c0,0,1,5.9,1.6,7
	c0.6,1.1,4.6,1.6,6.3,1.5l4.4,2.7c1.1,0.2,2.4,0.5,2.4,1.3c0.1,0.7-1.2,1.7-1.3,2.9c-0.1,1.3-0.9,4.2-1.1,5.4
	c-0.2,1.2,2.3,2.2,3.5,2.6l-0.8-3.2l2.2-2.8l7.8,4.9l0.1,2.4c0,0,0.5,0.1,1.9-1.8c2-2.8-5.1-6.5-5.1-6.5l4.7,0.5l1,2.5
	c0,0,0.2,0.4,0.8-2.1c0.5-2.4-7.7-4.8-9.2-5.5c-1.6-0.7-2.2-2.1-2.2-2.1s0.6-0.6,0.8-1c0.3-0.6,0.1-0.9-0.6-1.8
	c-0.6-0.9-0.4-0.7-2.8-1.9c-2.3-1.1-4.1-0.4-1.7-4.7c-0.2,0.4-0.9,2.5-0.6,3c0.3,0.6,2,1.1,3.4,1.7c1.4,0.6,1.8,0.9,2.5,2.2
	c1.2,2.4,5.3,3.3,6.1,4.2c1.9,2.2,6.2,5.2,9,6.3c2.2,0.9,3.5,5.9,3.5,5.9s-0.5,1.6-1.3,2.9c-0.8,1.3-0.6,2.1-0.4,2.7
	c0.2,0.6,1.7,1.4,2.6,1.8l-0.4-2.8l2.5-2.7l9.6,2.9c0.2,0.9,0.5,2.8,0.5,2.8s1.1-0.3,2.3-2.7c1.2-2.3-8.5-5.5-10-6.1
	c7.1-1.8,9.2-0.5,9.2-0.5s1.1,1.3,1.3,2.2c0,0,0.6-0.3,1-3.5c0.4-3.2-12-1-14-1.1c-0.6-0.5-2.6-3.2-2.5-5.6c0.1-2.4-1.1-2.4-2.7-4.3
	c-1.6-1.8-5.7-6.4-6-8.7c-0.3-2.3-0.7-3.3,2.2-4.9c3-1.5,6.6-3.2,6.6-3.2l-0.2,0.7c0,0,13.3-5.9,16.3-4.7c2,0.8,1.7,1.4,1.8,1.9
	c3.6-5.7-4.1-6.7-5.5-7.2c0.2-1.4-0.3-3-4-3.6c-3.7-0.6-9.5-1.2-9.5-1.2l0.2,0.4c0,0-9.9-0.5-11.4-0.6c-1.6-0.2-4.9-0.6-4.9-0.6
	s12.4-4.9,15.3-7.2c2.8-2.4,9.2-8.9,12.7-13.6c3.5-4.6,7.4-9.2,17.1-15c9.7-5.8,17.3-8.7,21.6-9.1c-0.5-0.7-1.3-1.8-6.4-0.8
	c-4.8,1-15,3.9-16,4.1c0.6-0.4,5.9-3.3,8.6-4.4c2.9-1.2,9-3.3,9.6-3.4c-0.5-0.8-3.4-1.7-7.5-0.7C172.7,93.2,164.3,97.3,163.3,97.8z
	 M152.5,145.6c0.3,0.2,0.3,0.5,0,1.1l-4.1-1.2C148.6,145.5,152.2,145.4,152.5,145.6z M125,1C56.5,1,1,56.5,1,125s55.5,124,124,124
	c68.5,0,124-55.5,124-124S193.5,1,125,1z M125,242.1C60.3,242.1,7.9,189.7,7.9,125C7.9,60.3,60.3,7.9,125,7.9
	c64.7,0,117.1,52.4,117.1,117.1C242.1,189.7,189.7,242.1,125,242.1z"/>
<path fill="#00539E" d="M184.8,42.1c-0.5-1.6-1.9-2.6-3-3.4l-2.8-1.9l-6.1,9.1l2.7,1.8c2.1,1.4,3.5,1.8,4.6,1.7
	c1.3-0.2,2.8-1.2,3.8-2.7C185,45.1,185.2,43.4,184.8,42.1z M29.3,137.2c-0.2,0-0.3-0.1-0.5-0.1l-3.9-1.2l0.5,3.8l3.4-2.1
	c0.1-0.1,0.3-0.2,0.4-0.2c0.1-0.1,0.3-0.1,0.4-0.2C29.5,137.2,29.4,137.2,29.3,137.2z M67.1,50.4c-0.5-0.6-1.1-0.7-1.7-0.5
	c-0.4,0.2-0.8,0.5-1.5,1.1l-5.4,4.8l2.3,2.7l5.6-4.9c0.6-0.5,0.9-0.9,1.1-1.2C67.9,51.6,67.5,50.9,67.1,50.4z M146.7,24.3
	c-0.5-0.6-1.2-0.8-1.8-0.9l-6-1l-0.6,3.7l5.4,0.9c1.1,0.2,2.9,0.5,3.2-1.3C147,25.2,147,24.7,146.7,24.3z M87.7,30.3
	c-0.2-0.4-0.5-0.8-1-1c-0.7-0.2-1.4,0-2,0.2l-5.5,2.5l1.5,3.4l5-2.3C86.8,32.8,88.5,32,87.7,30.3z M38.5,165.5l-1.7-3.9l-2.5,1.1
	l1.8,4c0.2,0.5,0.8,1.5,1.9,0.9c0.2-0.1,0.5-0.3,0.7-0.6C38.8,166.9,38.9,166.5,38.5,165.5z M61.4,45.1c-0.4-0.4-0.9-0.6-1.6-0.4
	c-0.3,0.1-0.7,0.4-1.2,0.8l-5.2,4.6l2.1,2.4l5.1-4.6c0.9-0.7,0.9-0.9,1.1-1.1C62,46.3,61.9,45.7,61.4,45.1z M205.5,179
	c-0.2-0.1-0.5-0.3-0.8-0.3c-0.3,0-0.7,0.1-1.3,0.9l-2.5,3.5l2.2,1.6l2.6-3.6C206,180.6,206.5,179.7,205.5,179z M122.5,221.9
	c-0.1-0.2-0.2-0.3-0.2-0.4c0-0.2-0.1-0.3-0.1-0.5c0,0.2-0.1,0.3-0.1,0.4c-0.1,0.1-0.1,0.3-0.2,0.4l-1.7,3.6l3.9,0.1L122.5,221.9z
	 M65.2,200.7c-0.2,0.1-0.3,0.2-0.4,0.2l-3.6,1.9l3,2.4l0.9-3.9c0-0.2,0.1-0.3,0.1-0.5c0-0.1,0.1-0.2,0.2-0.4
	C65.4,200.6,65.3,200.6,65.2,200.7z M45.6,177.6c-1.1-1.5-3.2-2.4-5.4-1c-1.1,0.7-1.4,1.6-1.5,1.9c-0.2,0.4-0.7,1.7,0.5,3.5
	c1.4,2.1,3.6,2.3,5.4,1.1C46.7,181.8,46.9,179.4,45.6,177.6z M38.5,165.5l-1.7-3.9l-2.5,1.1l1.8,4c0.2,0.5,0.8,1.5,1.9,0.9
	c0.2-0.1,0.5-0.3,0.7-0.6C38.8,166.9,38.9,166.5,38.5,165.5z M29.3,137.2c-0.2,0-0.3-0.1-0.5-0.1l-3.9-1.2l0.5,3.8l3.4-2.1
	c0.1-0.1,0.3-0.2,0.4-0.2c0.1-0.1,0.3-0.1,0.4-0.2C29.5,137.2,29.4,137.2,29.3,137.2z M67.1,50.4c-0.5-0.6-1.1-0.7-1.7-0.5
	c-0.4,0.2-0.8,0.5-1.5,1.1l-5.4,4.8l2.3,2.7l5.6-4.9c0.6-0.5,0.9-0.9,1.1-1.2C67.9,51.6,67.5,50.9,67.1,50.4z M61.7,46.8
	c0.3-0.5,0.2-1.1-0.3-1.7c-0.4-0.4-0.9-0.6-1.6-0.4c-0.3,0.1-0.7,0.4-1.2,0.8l-5.2,4.6l2.1,2.4l5.1-4.6C61.5,47.2,61.6,47,61.7,46.8
	z M87.7,30.3c-0.2-0.4-0.5-0.8-1-1c-0.7-0.2-1.4,0-2,0.2l-5.5,2.5l1.5,3.4l5-2.3C86.8,32.8,88.5,32,87.7,30.3z M146.7,24.3
	c-0.5-0.6-1.2-0.8-1.8-0.9l-6-1l-0.6,3.7l5.4,0.9c1.1,0.2,2.9,0.5,3.2-1.3C147,25.2,147,24.7,146.7,24.3z M184.8,42.1
	c-0.5-1.6-1.9-2.6-3-3.4l-2.8-1.9l-6.1,9.1l2.7,1.8c2.1,1.4,3.5,1.8,4.6,1.7c1.3-0.2,2.8-1.2,3.8-2.7
	C185,45.1,185.2,43.4,184.8,42.1z M204.3,58.9l-2.2-2.7l-8.5,7l2,2.5c1.6,1.9,2.8,2.7,4,2.9c1.3,0.2,3-0.4,4.4-1.5
	c1.5-1.2,2.1-2.8,2.1-4.1C206.2,61.3,205.2,59.9,204.3,58.9z M139.1,58.6c-1.7,0-2.6,0.7-2.9,1.1c0-0.6,0.1-1.4,0.8-2
	c0.4-0.3,0.9-0.6,1.6-0.6c1.2,0,1.7,0.6,1.9,1l2.3-0.2c-0.2-0.4-0.2-0.7-0.6-1.1c-0.8-1-2.2-1.3-3.5-1.3c-2,0-4.8,1.1-4.8,4.8
	c0,2.3,1.1,4.4,4.6,4.4c1.7,0,2.8-0.6,3.3-1.1c0.5-0.5,0.9-1.2,0.9-2.1C142.8,60,141.6,58.6,139.1,58.6z M138.4,63
	c-0.6,0-1.4-0.1-1.9-0.7c-0.2-0.3-0.2-0.6-0.2-0.8c0-0.8,0.8-1.4,1.9-1.4c0.9,0,2.3,0.2,2.3,1.4C140.6,62.7,139.5,63,138.4,63z
	 M128.2,61.7c2-0.7,3-1,3.6-1.8c0.3-0.5,0.6-1,0.6-1.6c0-2.7-3.3-2.8-4.2-2.8c-1,0-2.1,0.2-2.8,0.6c-1,0.6-1.2,1.7-1.3,2.5h2.2
	c0-0.2,0.1-0.5,0.3-0.8c0.3-0.5,0.8-0.6,1.5-0.6c0.6,0,1.8,0.1,1.8,1.1c0,0.8-0.6,1-1.2,1.3c-0.6,0.2-1.1,0.4-1.7,0.6
	c-0.7,0.2-1.8,0.7-2.5,1.7c-0.7,1-0.7,2.1-0.7,2.6h8.4v-1.7h-5.8C126.7,62.3,127,62.1,128.2,61.7z M118,55.4c-2.8,0-4.3,1.4-4.3,3.2
	c0,1.3,0.8,2.8,3.5,2.8c0.8,0,1.5-0.1,2.2-0.4c0.5-0.2,0.7-0.4,0.9-0.7c-0.1,0.7-0.2,1.4-0.7,1.9c-0.6,0.6-1.5,0.7-1.8,0.7
	c-1.4,0-1.8-0.7-1.9-1l-2.2,0.2c0.1,0.4,0.2,0.9,0.8,1.4c1.1,1,2.5,1.1,3.1,1.1c1,0,3.5-0.1,4.5-2.4c0.3-0.8,0.4-1.6,0.4-2.5
	c0-1.5-0.5-2.7-1.2-3.3C120.1,55.4,118.5,55.4,118,55.4z M117.8,59.9c-0.7,0-1.9-0.2-1.9-1.4c0-1,0.9-1.4,2-1.5
	c0.8,0,2.3,0.1,2.3,1.4C120.1,59.6,118.9,59.9,117.8,59.9z M106.2,57v1.6c1.2-0.2,1.7-0.3,2.5-0.7v6.6h2.2v-8.8h-2
	C108,56.8,106.8,56.9,106.2,57z M125,9.8C61.5,9.8,9.8,61.5,9.8,125S61.5,240.2,125,240.2S240.2,188.5,240.2,125S188.5,9.8,125,9.8z
	 M233.3,115.7l-4.5,0.9l-2.7-14l-3.3,0.6l2.5,12.9l-4.6,0.9l-2.5-13l-3.2,0.6l2.7,14.3l-4.6,0.9l-4.1-21.5l20.1-3.8L233.3,115.7z
	 M223.1,79.3L209,85.8l4.3,9.5l-4.5,2.1l-7.4-16.2l18.6-8.5L223.1,79.3z M206.2,125c0,44.8-36.4,81.3-81.2,81.3
	c-44.8,0-81.3-36.5-81.3-81.3S80.2,43.7,125,43.7C169.8,43.7,206.2,80.2,206.2,125z M208.7,56.6c1.3,1.7,5.2,6.2,3.2,11.5
	c-0.3,0.8-1.1,2.7-3.4,4.7c-1.3,1-2.7,1.8-4.2,2.2c-1.3,0.4-3.2,0.7-5.6-0.4c-2.3-1-3.7-2.4-5-4l-8.2-10.1l15.9-13L208.7,56.6z
	 M185.3,35.3c1.8,1.2,6.8,4.4,6.4,10.1c-0.1,0.9-0.2,2.9-2,5.4c-0.9,1.3-2,2.5-3.4,3.4c-1.1,0.7-2.8,1.5-5.4,1.3
	c-2.5-0.3-4.2-1.3-5.9-2.4l-10.8-7.3l11.4-17L185.3,35.3z M168.4,25.9l-7.6,19l-6.8-2.7l7.6-19L168.4,25.9z M131,25l1.4-8.5
	l14.8,2.5c1.8,0.3,3.9,0.7,5.4,2.3c1.3,1.3,1.8,3.5,1.5,5.5c-0.2,1.4-0.9,2.8-1.9,3.6c-1.4,1.2-2.8,1.2-3.7,1.3l3.7,8.9l-8-1.4
	l-2.9-8.1l-3.9-0.7l-1.3,7.4l-7.2-1.3l1.2-7.3l-10.2-1.6l3.5-4L131,25z M104,18.8l4.3,5.6c0.7,1,0.8,1.1,1.4,2.1
	c0.3-1.2,0.4-1.5,0.8-2.9l2.3-6.2l8.4-1.3l-7,15.6l0.9,6l-7.2,1.1l-0.9-6L95.5,20.1L104,18.8z M84.4,24.7c1.6-0.7,3.6-1.6,5.7-1.2
	c1.8,0.4,3.5,1.9,4.3,3.8c0.6,1.3,0.8,2.8,0.4,4.1c-0.5,1.7-1.7,2.6-2.4,3.2l8.1,5.4l-7.4,3.3l-6.9-5.1l-3.6,1.6l3.1,6.8l-6.7,3
	l-8.4-18.7L84.4,24.7z M57.7,40.2c1.1-0.9,2.6-2.2,4.3-2.4c1.8-0.2,3.2,0.9,3.8,1.7c1.7,1.9,1.6,3.9,0.1,6.1c1-0.7,2.3-1.5,3.9-1.3
	c1.3,0.1,2.2,0.7,3.1,1.8c1.9,2.1,1.7,4.5,0.7,6.4c-0.9,1.6-2.3,3-3.5,4.1L58.3,66.9L44.8,51.5L57.7,40.2z M28.1,76.6l14.2,2.1
	l-9.1-11.1l4.7-8.5l17.8,10l-3.6,6.3L40.8,69l9.1,10.7l-2.8,4.9l-13.7-2.2l11.4,6.4l-3.5,6.2L23.4,85L28.1,76.6z M20.8,93.7l4.6,0.9
	l-2.7,14l3.3,0.6l2.4-13l4.6,0.9l-2.4,13l3.2,0.6l2.7-14.3l4.6,0.9l-4.1,21.5L16.8,115L20.8,93.7z M21.7,142.1l1.9-1.2l-0.7-5.6
	l-2.2-0.7l-0.4-3l11.6,3.9l0.4,3l-10.3,6.7L21.7,142.1z M22.8,147.9l10.6-2.9l2.7,9.9l-1.9,0.5l-2-7.2l-2.4,0.6l1.9,7l-1.9,0.5
	l-1.9-7l-2.6,0.7l2.1,7.5l-1.9,0.5L22.8,147.9z M35.1,168.9l-2.8,4.9l-1.3-3l2.8-4.5l-1.3-2.9l-4,1.8l-1.1-2.5l10-4.5l3.1,6.9
	c0.5,1.1,0.9,2.2,0.3,3.5c-0.4,0.8-1,1.3-1.6,1.5c-0.8,0.3-1.8,0.5-2.7,0C35.8,169.9,35.4,169.3,35.1,168.9z M37.6,183.1
	c-2.4-3.7-1.7-7,1.1-8.9c3.2-2.1,6.3-0.9,8.4,2c1.3,1.7,2.2,4.1,1.5,6.2c-0.2,0.7-0.8,2-2.3,3C43.4,187.4,40.1,186.8,37.6,183.1z
	 M50.7,198.7l0.8-8.2c0.1-0.9,0.1-1.3,0.3-2.2c-0.6,0.6-0.7,0.8-1.3,1.3l-4.4,4.2l-1.8-1.9l8.1-7.5l1.9,2l-0.8,8.1
	c-0.1,1-0.2,1.2-0.3,2.3c0.7-0.8,0.9-1,1.6-1.7l4.1-3.8l1.8,1.9l-8.1,7.5L50.7,198.7z M65.6,211.4l-2.4-1.9l0.6-2.2l-4.4-3.5l-2,1
	l-2.4-1.9l11-5.4l2.3,1.8L65.6,211.4z M80.8,214.9c-0.6,1-1.2,2-2.5,2.4c-1.6,0.5-3.7-0.2-5.1-1c-0.7-0.4-1.3-0.8-1.9-1.4
	c-0.4-0.4-0.9-0.9-1.3-1.6c-0.9-1.9-0.2-3.2,0.4-4.3l3.2-5.5l2.4,1.3l-3.2,5.6c-0.5,0.9-0.7,1.7-0.1,2.6c0.6,0.8,1.3,1.2,2,1.6
	c1,0.4,1.7,0.5,2.3,0.3c0.4-0.1,0.8-0.3,1.3-1.3l3.2-5.6l2.4,1.3L80.8,214.9z M88.4,223l-2.6-1l3.3-8.4l-3.8-1.5l0.7-1.9l10.2,3.9
	l-0.7,1.9l-3.8-1.5L88.4,223z M97.3,225.9l-2.7-0.8l3.1-10.6l2.7,0.8L97.3,225.9z M106.9,226.3c2.4,0.4,3.3-0.8,3.8-1.4l2.9,0.5
	c-0.3,0.6-0.7,1.4-1.8,2.1c-1,0.6-2.6,1.3-5.4,0.8c-3.9-0.7-6.2-3.2-5.4-7c0.7-4.1,4.3-5.2,7.7-4.5c1.3,0.2,4.8,1.2,5.6,4.5l-3-0.2
	c-0.2-0.5-0.8-2-2.9-2.4c-2.4-0.5-4.2,1-4.5,3.1C103.2,224.2,104.8,226,106.9,226.3z M125.7,229.7l-0.9-2.1l-5.6-0.2l-1,2.1l-3-0.1
	l5.6-10.9l3,0.1l5,11.2L125.7,229.7z M132.1,229.4l-1.2-11l2.8-0.3l0.9,9l6.1-0.6l0.2,2L132.1,229.4z M160.7,222.1
	c-0.7,1.5-2.6,2.6-4.2,3.1c-0.8,0.2-1.5,0.4-2.3,0.4c-0.6,0.1-1.3,0-2.1-0.2c-2-0.6-2.5-2-2.9-3.2l-1.9-6.1l2.6-0.8l2,6.2
	c0.3,0.9,0.7,1.7,1.9,1.8c1,0.1,1.7-0.1,2.5-0.4c1-0.4,1.5-0.9,1.8-1.5c0.2-0.4,0.2-0.8-0.1-1.8l-2-6.2l2.6-0.8l1.9,6.1
	C160.9,219.8,161.3,220.8,160.7,222.1z M174.4,217.2l-7.7-3.1c-0.8-0.4-1.2-0.5-2.1-0.9c0.4,0.7,0.5,0.9,0.9,1.6l2.7,5.4l-2.4,1.2
	l-4.9-9.9l2.4-1.3l7.6,3.1c0.9,0.4,1.1,0.5,2.1,0.9c-0.6-0.9-0.7-1.1-1.1-2l-2.5-5.1l2.4-1.2l4.9,9.9L174.4,217.2z M181,213.4
	l-6-9.2l2.3-1.5l6,9.2L181,213.4z M189.3,207.5l-10.8-5.5l2.4-1.9l6.8,3.8c0.4,0.2,0.6,0.3,0.9,0.6c-0.2-0.5-0.2-0.6-0.4-1L186,196
	l2.3-1.8l3,11.7L189.3,207.5z M196.9,201.2l-7.9-7.7l7.1-7.4l1.4,1.4l-5.2,5.4l1.8,1.7l5.1-5.2l1.4,1.4l-5.1,5.2l1.9,1.8l5.4-5.6
	l1.4,1.4L196.9,201.2z M211.8,183.5l-5.3-0.2l-1.8,2.5l3.6,2.6l-1.6,2.2l-8.9-6.5l4.5-6.2c0.7-1,1.5-1.9,2.9-2
	c0.9-0.1,1.6,0.3,2.1,0.6c0.7,0.5,1.3,1.3,1.3,2.3c0,0.7-0.3,1.5-0.5,1.9l5.7,0L211.8,183.5z M218.4,172.9c-0.8,1.6-2.4,4-5.5,3.9
	l0.6-2.5c1.5,0.1,2.5-1.2,3.2-2.5c0.3-0.6,1.2-2.5,0-3.2c-0.7-0.4-1.2,0.2-1.6,0.7c-0.3,0.4-1.6,2.2-2,2.6c-0.6,0.8-2.2,2.9-4.4,1.7
	c-0.5-0.2-0.9-0.6-1.2-1.1c-0.9-1.5-0.3-3.5,0.5-5.1c0.8-1.4,1.5-2.4,2.6-3.2c1.1-0.7,2-0.8,2.4-0.8l-0.6,2.6c-0.2,0-0.6,0-1.3,0.4
	c-0.6,0.5-1.1,1.3-1.4,1.8c-0.6,1.1-0.9,2.3,0,2.8c0.6,0.3,1.1-0.2,1.7-0.8c0.3-0.4,1.7-2.2,2-2.6c0.8-1,2.2-2.7,4.3-1.6
	C220.8,167.9,219,171.7,218.4,172.9z M221.9,164.4l-10.3-4l1-2.6l10.3,4L221.9,164.4z M225.2,155.1l-8.7-2.4l-1.1,3.9l-1.9-0.6
	l3-10.5l1.9,0.6l-1.1,3.9l8.7,2.5L225.2,155.1z M228.5,139.9l-4.1-0.6l-7.5,4.3l0.4-3.4l4.5-2.4c0.3-0.2,0.4-0.2,0.6-0.2
	c-0.2-0.1-0.2-0.2-0.4-0.3l-3.8-3.5l0.4-3.3l6.2,6.1l4.1,0.5L228.5,139.9z M204.7,178.7c-0.3,0-0.7,0.1-1.3,0.9l-2.5,3.5l2.2,1.6
	l2.6-3.6c0.4-0.5,0.9-1.4-0.1-2.1C205.3,178.9,205,178.7,204.7,178.7z M195.7,65.7c1.6,1.9,2.8,2.7,4,2.9c1.3,0.2,3-0.4,4.4-1.5
	c1.5-1.2,2.1-2.8,2.1-4.1c0-1.7-1-3.1-1.9-4.1l-2.2-2.7l-8.5,7L195.7,65.7z M175.5,47.7c2.1,1.4,3.5,1.8,4.6,1.7
	c1.3-0.2,2.8-1.2,3.8-2.7c1.1-1.6,1.3-3.3,0.9-4.6c-0.5-1.6-1.9-2.6-3-3.4l-2.8-1.9l-6.1,9.1L175.5,47.7z M147,25.6
	c0.1-0.5,0-1-0.3-1.4c-0.5-0.6-1.2-0.8-1.8-0.9l-6-1l-0.6,3.7l5.4,0.9C144.8,27.1,146.6,27.5,147,25.6z M139.1,58.6
	c-1.7,0-2.6,0.7-2.9,1.1c0-0.6,0.1-1.4,0.8-2c0.4-0.3,0.9-0.6,1.6-0.6c1.2,0,1.7,0.6,1.9,1l2.3-0.2c-0.2-0.4-0.2-0.7-0.6-1.1
	c-0.8-1-2.2-1.3-3.5-1.3c-2,0-4.8,1.1-4.8,4.8c0,2.3,1.1,4.4,4.6,4.4c1.7,0,2.8-0.6,3.3-1.1c0.5-0.5,0.9-1.2,0.9-2.1
	C142.8,60,141.6,58.6,139.1,58.6z M138.4,63c-0.6,0-1.4-0.1-1.9-0.7c-0.2-0.3-0.2-0.6-0.2-0.8c0-0.8,0.8-1.4,1.9-1.4
	c0.9,0,2.3,0.2,2.3,1.4C140.6,62.7,139.5,63,138.4,63z M128.2,61.7c2-0.7,3-1,3.6-1.8c0.3-0.5,0.6-1,0.6-1.6c0-2.7-3.3-2.8-4.2-2.8
	c-1,0-2.1,0.2-2.8,0.6c-1,0.6-1.2,1.7-1.3,2.5h2.2c0-0.2,0.1-0.5,0.3-0.8c0.3-0.5,0.8-0.6,1.5-0.6c0.6,0,1.8,0.1,1.8,1.1
	c0,0.8-0.6,1-1.2,1.3c-0.6,0.2-1.1,0.4-1.7,0.6c-0.7,0.2-1.8,0.7-2.5,1.7c-0.7,1-0.7,2.1-0.7,2.6h8.4v-1.7h-5.8
	C126.7,62.3,127,62.1,128.2,61.7z M122.3,221.5c0-0.2-0.1-0.3-0.1-0.5c0,0.2-0.1,0.3-0.1,0.4c-0.1,0.1-0.1,0.3-0.2,0.4l-1.7,3.6
	l3.9,0.1l-1.5-3.6C122.4,221.8,122.3,221.6,122.3,221.5z M118,55.4c-2.8,0-4.3,1.4-4.3,3.2c0,1.3,0.8,2.8,3.5,2.8
	c0.8,0,1.5-0.1,2.2-0.4c0.5-0.2,0.7-0.4,0.9-0.7c-0.1,0.7-0.2,1.4-0.7,1.9c-0.6,0.6-1.5,0.7-1.8,0.7c-1.4,0-1.8-0.7-1.9-1l-2.2,0.2
	c0.1,0.4,0.2,0.9,0.8,1.4c1.1,1,2.5,1.1,3.1,1.1c1,0,3.5-0.1,4.5-2.4c0.3-0.8,0.4-1.6,0.4-2.5c0-1.5-0.5-2.7-1.2-3.3
	C120.1,55.4,118.5,55.4,118,55.4z M117.8,59.9c-0.7,0-1.9-0.2-1.9-1.4c0-1,0.9-1.4,2-1.5c0.8,0,2.3,0.1,2.3,1.4
	C120.1,59.6,118.9,59.9,117.8,59.9z M106.2,57v1.6c1.2-0.2,1.7-0.3,2.5-0.7v6.6h2.2v-8.8h-2C108,56.8,106.8,56.9,106.2,57z
	 M85.8,33.2c1-0.5,2.7-1.2,2-2.9c-0.2-0.4-0.5-0.8-1-1c-0.7-0.2-1.4,0-2,0.2l-5.5,2.5l1.5,3.4L85.8,33.2z M60.7,58.5l5.6-4.9
	c0.6-0.5,0.9-0.9,1.1-1.2c0.5-0.9,0.1-1.6-0.3-2.1c-0.5-0.6-1.1-0.7-1.7-0.5c-0.4,0.2-0.8,0.5-1.5,1.1l-5.4,4.8L60.7,58.5z
	 M64.8,200.9l-3.6,1.9l3,2.4l0.9-3.9c0-0.2,0.1-0.3,0.1-0.5c0-0.1,0.1-0.2,0.2-0.4c-0.1,0.1-0.2,0.2-0.3,0.2
	C65.1,200.8,64.9,200.9,64.8,200.9z M61.7,46.8c0.3-0.5,0.2-1.1-0.3-1.7c-0.4-0.4-0.9-0.6-1.6-0.4c-0.3,0.1-0.7,0.4-1.2,0.8
	l-5.2,4.6l2.1,2.4l5.1-4.6C61.5,47.2,61.6,47,61.7,46.8z M45.6,177.6c-1.1-1.5-3.2-2.4-5.4-1c-1.1,0.7-1.4,1.6-1.5,1.9
	c-0.2,0.4-0.7,1.7,0.5,3.5c1.4,2.1,3.6,2.3,5.4,1.1C46.7,181.8,46.9,179.4,45.6,177.6z M37.9,167.7c0.2-0.1,0.5-0.3,0.7-0.6
	c0.2-0.3,0.3-0.6-0.2-1.6l-1.7-3.9l-2.5,1.1l1.8,4C36.3,167.3,36.8,168.2,37.9,167.7z M28.8,137.1l-3.9-1.2l0.5,3.8l3.4-2.1
	c0.1-0.1,0.3-0.2,0.4-0.2c0.1-0.1,0.3-0.1,0.4-0.2c-0.2,0-0.3,0-0.4-0.1C29.1,137.2,29,137.1,28.8,137.1z M45.6,177.6
	c-1.1-1.5-3.2-2.4-5.4-1c-1.1,0.7-1.4,1.6-1.5,1.9c-0.2,0.4-0.7,1.7,0.5,3.5c1.4,2.1,3.6,2.3,5.4,1.1
	C46.7,181.8,46.9,179.4,45.6,177.6z M205.5,179c-0.2-0.1-0.5-0.3-0.8-0.3c-0.3,0-0.7,0.1-1.3,0.9l-2.5,3.5l2.2,1.6l2.6-3.6
	C206,180.6,206.5,179.7,205.5,179z M65.2,200.7c-0.2,0.1-0.3,0.2-0.4,0.2l-3.6,1.9l3,2.4l0.9-3.9c0-0.2,0.1-0.3,0.1-0.5
	c0-0.1,0.1-0.2,0.2-0.4C65.4,200.6,65.3,200.6,65.2,200.7z M122.5,221.9c-0.1-0.2-0.2-0.3-0.2-0.4c0-0.2-0.1-0.3-0.1-0.5
	c0,0.2-0.1,0.3-0.1,0.4c-0.1,0.1-0.1,0.3-0.2,0.4l-1.7,3.6l3.9,0.1L122.5,221.9z M121.2,56.4c-1.1-1-2.8-1-3.2-1
	c-2.8,0-4.3,1.4-4.3,3.2c0,1.3,0.8,2.8,3.5,2.8c0.8,0,1.5-0.1,2.2-0.4c0.5-0.2,0.7-0.4,0.9-0.7c-0.1,0.7-0.2,1.4-0.7,1.9
	c-0.6,0.6-1.5,0.7-1.8,0.7c-1.4,0-1.8-0.7-1.9-1l-2.2,0.2c0.1,0.4,0.2,0.9,0.8,1.4c1.1,1,2.5,1.1,3.1,1.1c1,0,3.5-0.1,4.5-2.4
	c0.3-0.8,0.4-1.6,0.4-2.5C122.4,58.2,121.9,57.1,121.2,56.4z M117.8,59.9c-0.7,0-1.9-0.2-1.9-1.4c0-1,0.9-1.4,2-1.5
	c0.8,0,2.3,0.1,2.3,1.4C120.1,59.6,118.9,59.9,117.8,59.9z M108.9,55.7c-0.9,1.1-2.1,1.3-2.7,1.3v1.6c1.2-0.2,1.7-0.3,2.5-0.7v6.6
	h2.2v-8.8H108.9z M139.1,58.6c-1.7,0-2.6,0.7-2.9,1.1c0-0.6,0.1-1.4,0.8-2c0.4-0.3,0.9-0.6,1.6-0.6c1.2,0,1.7,0.6,1.9,1l2.3-0.2
	c-0.2-0.4-0.2-0.7-0.6-1.1c-0.8-1-2.2-1.3-3.5-1.3c-2,0-4.8,1.1-4.8,4.8c0,2.3,1.1,4.4,4.6,4.4c1.7,0,2.8-0.6,3.3-1.1
	c0.5-0.5,0.9-1.2,0.9-2.1C142.8,60,141.6,58.6,139.1,58.6z M138.4,63c-0.6,0-1.4-0.1-1.9-0.7c-0.2-0.3-0.2-0.6-0.2-0.8
	c0-0.8,0.8-1.4,1.9-1.4c0.9,0,2.3,0.2,2.3,1.4C140.6,62.7,139.5,63,138.4,63z M128.2,61.7c2-0.7,3-1,3.6-1.8c0.3-0.5,0.6-1,0.6-1.6
	c0-2.7-3.3-2.8-4.2-2.8c-1,0-2.1,0.2-2.8,0.6c-1,0.6-1.2,1.7-1.3,2.5h2.2c0-0.2,0.1-0.5,0.3-0.8c0.3-0.5,0.8-0.6,1.5-0.6
	c0.6,0,1.8,0.1,1.8,1.1c0,0.8-0.6,1-1.2,1.3c-0.6,0.2-1.1,0.4-1.7,0.6c-0.7,0.2-1.8,0.7-2.5,1.7c-0.7,1-0.7,2.1-0.7,2.6h8.4v-1.7
	h-5.8C126.7,62.3,127,62.1,128.2,61.7z M204.3,58.9l-2.2-2.7l-8.5,7l2,2.5c1.6,1.9,2.8,2.7,4,2.9c1.3,0.2,3-0.4,4.4-1.5
	c1.5-1.2,2.1-2.8,2.1-4.1C206.2,61.3,205.2,59.9,204.3,58.9z"/>
</svg>
