<svg xmlns="http://www.w3.org/2000/svg" height="800" width="1200" viewBox="-22.233045 -7.75155 192.68639 46.5093"><path d="M14.552 20.9247h-3.8742L7.276 11.6643l-3.4962 9.1659H0L5.2917 7.0341h3.9687z" fill="#3bbc97"/><path fill="#3bbc97" paint-order="markers stroke fill" d="M16.631 7.034h3.7797v13.9852H16.631z"/><path d="M24.4741 7.1285l-.0946 13.796 3.5905.0946.0946-5.1971 3.591 5.1025h4.0633l-3.8742-5.5748c4.8268-3.011 2.1526-7.9913-1.0397-8.2212zm3.7884 2.7259c3.8394-.0182 2.8488 3.8744-.3157 3.3925l-.0708-3.378c.134-.009.2627-.014.3865-.0145z" fill="#3bbc97"/><path d="M48.948 10.3886l1.2756-2.3623c-7.9473-4.8166-13.298 5.1777-4.4885 7.5122 1.2784.4835 2.2375 1.9333.4252 2.6931-1.4381.5876-2.7352-.436-3.9215-1.2757l-1.6536 2.8349c1.9997 1.2714 4.7824 2.0044 6.5673 1.5119 1.3009-.3716 3.0029-1.6019 3.4963-2.8821 1.011-3.703-.5486-4.4497-1.9844-5.339-2.4215-1.2711-4.5274-1.1751-3.449-2.882 1.326-1.112 2.3333-.4527 3.7325.189zM61.7991 20.972h-7.6068V7.1285h7.6068v2.882H57.736v2.4569h3.7325v2.9293H57.736v2.5513h4.016v3.0238z" fill="#3aba97"/><path d="M72.2645 6.467a7.4887 7.4887 0 00-7.489 7.489 7.4887 7.4887 0 007.489 7.4884 7.4887 7.4887 0 007.4884-7.4885 7.4887 7.4887 0 00-7.4884-7.489zm0 3.5894a3.8996 3.8996 0 013.8995 3.8995 3.8996 3.8996 0 01-3.8995 3.8995 3.8996 3.8996 0 01-3.8995-3.8995 3.8996 3.8996 0 013.8995-3.8995z" fill="#3aba97" paint-order="markers stroke fill"/><path d="M86.8873 7.0577l-3.5435.0236.0472 10.1581c.093 1.9465 2.0992 4.0185 4.4885 4.0633h2.8348c1.9727.0354 4.6147-2.2555 4.6302-4.4885L95.321 7.034l-3.5199.0236-.0946 8.906c-.2306 2.9294-4.746 2.8648-4.772.0473z" fill="#3aba97"/><path d="M102.8095 7.1286l-3.5435-.0473.0945 13.7488 7.7013.0945.0253-2.882-4.2303.0472z" fill="#3bbc97"/><path d="M137.2945 9.1538a10.9262 10.9262 0 00-10.9266 10.9266 10.9262 10.9262 0 0010.9266 10.9258 10.9262 10.9262 0 0010.9258-10.9258 10.9262 10.9262 0 00-10.9258-10.9266zm0 5.237a5.6896 5.6896 0 015.6895 5.6896 5.6896 5.6896 0 01-5.6895 5.6895 5.6896 5.6896 0 01-5.6895-5.6895 5.6896 5.6896 0 015.6895-5.6895z" fill="#b4bcaf" paint-order="markers stroke fill"/><path d="M121.3246 21.025l-5.7169-.0473L123.687.0473 129.64 0l7.843 20.9777-5.8114.0472-5.1499-14.4576z" fill="#3aba97"/><path d="M133.343 9.9051a10.9262 10.9262 0 00-4.4794 3.237l2.8081 7.8828h.0134a5.6896 5.6896 0 01-.0806-.9447 5.6896 5.6896 0 013.5698-5.2766z" fill="#058e7e" paint-order="markers stroke fill"/></svg>