<svg xmlns="http://www.w3.org/2000/svg" height="800" width="1200" viewBox="-57 -34.2715 494 205.629"><path d="M36.29 40.508l4.343-9.122H3.117l2.217 4.666c.88 2.025 1.27 3.321.745 6.479-.015.088-5.566 31.614-6 34.008-.445 2.497 1.061 3.674 3.027 3.674H34.68l-2.059-9.144H12.38l1.961-11.142h18.672l1.614-9.197H15.968l1.795-10.224H36.29zm298.702 0l4.348-9.122h-35.735s.885 1.869 2.221 4.666c.875 2.025 1.268 3.321.744 6.479-.015.088-5.576 31.614-6.007 34.008-.447 2.497 1.068 3.674 3.028 3.674h29.796l-2.058-9.144H312.87l1.956-11.142h16.894l1.618-9.197h-16.886l1.798-10.224h16.742zm-231.085 3.213c.83-2.628 3.7-3.212 7.905-3.212h7.584l3.322-9.122H109.75c-4.702 0-15.447-.444-17.753 10.026-3.193 14.576 15.716 18.789 14.764 25.42-.568 3.894-4.282 4.238-9.41 4.238H86.026l2.124 9.144h12.826c6.643 0 15.914-1.211 18.094-9.476 3.935-14.867-17.28-19.714-15.163-27.018zm141.579 2.072c.622-7.994-4.369-14.406-16.889-14.406h-18.304l2.2 4.666c.881 2.025 1.27 3.32.748 6.47L206.6 80.215h10.991l3.222-18.298s.81-.111 3.064.009c3.025.171 3.518 2.304 9.617 18.289h12.026c-6.468-16.149-7.628-19.054-9.648-21.068 4.917-1.976 9.105-6.749 9.615-13.354zm-11.033.945c-.702 3.997-4.189 6.975-8.533 6.975h-3.66l2.324-13.205h4.224c4.075 0 6.265 2.677 5.645 6.23zm-94.851-6.23L132.6 80.214h11.481l7-39.706h12.758l3.312-9.122h-42.244l3.32 9.122zm213.606 0l-6.996 39.706h11.481l6.997-39.706h11.993L380 31.386h-39.694l3.316 9.122zm-73.14-19.153a98.325 98.325 0 01-1.639-.143c-13.914-1.464-17.467-2.528-18.45-20.291 0 0-.069-.921-.823-.921-.762 0-.825.921-.825.921-.98 17.763-4.536 18.827-18.45 20.291a90.62 90.62 0 01-1.64.143c-.434.034-.903.213-.903.533 0 .352.44.528.903.585 15.354 1.903 18.788 3.216 20.124 25.363.015.492.243.987.791.987.544 0 .771-.496.792-.987 1.332-22.146 4.766-23.46 20.12-25.363.458-.057.908-.233.908-.585.001-.321-.476-.5-.908-.533zm.994 10.031l2.213 4.666c.877 2.025 1.271 3.321.748 6.479l-3.266 18.634c-3.167 18.137-12.445 18.149-18.183 18.149-1.062 1.747 10.993 4.449 18.812.732 6.08-2.88 9.092-8.055 10.608-16.881.417-2.417 5.58-31.78 5.58-31.78h-16.512zm-89.027 3.673c-.5-2.108-2.132-3.673-4.52-3.673h-14.11l2.307 4.879c.964 2.091.845 3.501-.44 5.924l-20.063 38.025h11.598l5.896-11.624h16.243l2.205 11.624h11.395c-.002 0-10.015-43.033-10.51-45.155zm-14.748 24.484l7.241-14.301 2.71 14.301zM73.597 35.059c-.504-2.108-2.13-3.673-4.525-3.673H54.963l2.312 4.879c.962 2.091.843 3.501-.44 5.924L36.766 80.214h11.6L54.26 68.59H70.5l2.205 11.624H84.1S74.096 37.181 73.597 35.059zM58.844 59.543l7.242-14.3 2.708 14.3z" fill="#D12149"/><path d="M114.542 104.954c5.15 0 9.25 4.17 9.25 9.472 0 5.268-4.1 9.474-9.25 9.474-5.148 0-9.25-4.206-9.25-9.474 0-5.302 4.103-9.472 9.25-9.472zm-4.929 9.472c0 3.221 2.09 6.253 4.892 6.253 2.812 0 4.935-2.916 4.935-6.175s-2.089-6.292-4.896-6.292c-2.702 0-4.93 2.918-4.93 6.214zm28.078 14.891h32.107v3.334h-32.107zm13.783-21.817c0-2.789-.88-3.455-.88-3.455h5.67v5.987c0 7.163 5.76 10.342 11.555 10.342.287 0 .252.153.111.304l-2.378 2.919c-3.817 0-9.322-2.201-11.412-6.367-.252-.455-.398-.455-.648 0-2.123 4.166-7.667 6.328-11.41 6.328l-2.378-2.919c-.14-.152-.182-.302.11-.302 5.651 0 11.66-3.107 11.66-10.99zm0 0c0-2.789-.88-3.455-.88-3.455h5.67v5.987c0 7.163 5.76 10.342 11.555 10.342.287 0 .252.153.111.304l-2.378 2.919c-3.817 0-9.322-2.201-11.412-6.367-.252-.455-.398-.455-.648 0-2.123 4.166-7.667 6.328-11.41 6.328l-2.378-2.919c-.14-.152-.182-.302.11-.302 5.651 0 11.66-3.107 11.66-10.99zm25.821 14.542c0 .495.287.759.68.759h11.38c2.915 0 4.388-.566 5.397-1.364v-15.802c0-2.801-.882-3.445-.882-3.445h5.093v11.139h4.57v3.334h-4.57v19.703h-4.21v-11.559c-1.478 1.064-3.206 1.329-6.807 1.329h-10.69c-2.808 0-4.21-1.407-4.21-4.586v-13.565c0-2.579-.883-3.373-.883-3.373h16.935v3.334h-11.803v5.647h11.086v3.296h-11.086zm34.311-12.844h-3.743v-3.296h7.773v-.896c0-2.653-.88-3.388-.88-3.388h5.38v4.284h7.845v3.296h-3.812c.79 1.211 1.293 2.649 1.293 4.208 0 4.127-3.422 7.502-7.594 7.502-4.144 0-7.56-3.375-7.56-7.502a7.408 7.408 0 011.298-4.208zm2.988 4.208c0 2.271 1.546 4.202 3.312 4.202 1.727 0 3.31-1.892 3.31-4.127 0-2.275-1.33-4.21-3.273-4.21-1.726 0-3.349 1.895-3.349 4.135zm11.66 7.953c4.573 0 8.283 3.525 8.283 7.882 0 4.321-3.71 7.845-8.284 7.845-4.532 0-8.239-3.524-8.239-7.845 0-4.357 3.707-7.882 8.24-7.882zm0 3.412c-2.084 0-3.888 1.935-3.888 4.471 0 2.501 1.804 4.433 3.887 4.433 2.127 0 3.96-1.932 3.96-4.433 0-2.537-1.833-4.471-3.96-4.471zm14.4-15.535v3.711h-4.57v8.603h-4.25v-15.915c0-2.73-.882-3.445-.882-3.445h5.132v7.047h4.57zm34.132 7.351v3.37h-31.023v-3.37h11.842v-3.373c0-2.47-.884-3.221-.884-3.221h5.271v6.594zm-7.809-9.055c0-.493-.144-.684-.717-.684h-18.97v-3.373h23.68c.253 0 .328.154.328.38v5.113c0 3.563-.47 4.512-1.51 5.875h-4.176c1.15-1.55 1.364-3.107 1.364-6.289v-1.022zm-7.705 13.865c4.536 0 8.245 3.563 8.245 7.883 0 4.281-3.709 7.805-8.245 7.805-4.532 0-8.239-3.524-8.239-7.805 0-4.319 3.707-7.883 8.24-7.883zm0 3.41c-2.123 0-3.993 1.97-3.993 4.474 0 2.461 1.87 4.432 3.993 4.432 2.161 0 3.997-1.971 3.997-4.432.001-2.504-1.835-4.474-3.997-4.474zm-130.674 11.559v-30.725c0-2.857-.882-3.452-.882-3.452h5.078v34.176h-4.196z" fill="#4C5C65"/></svg>