<svg xmlns="http://www.w3.org/2000/svg" height="800" width="1200" xml:space="preserve" y="0" x="0" id="layer" version="1.1" viewBox="-89.985 -27.4 779.87 164.4"><style id="style2" type="text/css">.st1{fill:#f15a22}</style><path transform="translate(-26.7 -272)" id="polygon4" fill="#00a7e1" d="M532.3 272l-9.8 24.5 45.8-24.4z"/><path transform="translate(-26.7 -272)" id="polygon6" class="st1" fill="#f15a22" d="M159.3 339.5h38.2l8-20.8h-38.4l8.1-20.5h38.2l8.7-22.2H150l-39 104.5h75l8.7-22.4h-42.8z"/><g transform="translate(-26.7 -272)" id="g14"><path id="path8" d="M206.4 358.1l-8.9 22.5c19.8 2.1 36.7-.2 36.7-.2 11.7-1.1 31.4-4.9 42-30.4l29.6-74H272l-25.9 64s-4.1 13.9-18.9 17.6c-5.3 1.4-14.9.8-20.8.5" class="st1" fill="#f15a22"/><path id="path10" d="M35.6 358.1l-8.9 22.5c19.8 2.1 36.6-.2 36.6-.2 11.7-1.1 31.4-4.9 42-30.4l29.6-74H101l-25.9 64s-4.1 13.9-18.9 17.6c-5.1 1.4-14.8.8-20.6.5" class="st1" fill="#f15a22"/><path id="path12" d="M378.1 276l-24.8 67c-5.9 15-11.3 15.8-19.5 15.8-9.6 0-7.2-7.9-5.9-12.5l26.5-70.3h-33.5l-27.3 73.5c-9.5 26.2 12.2 31.7 22.9 31.7H334c9.6 0 39.8-2.6 49-27.3l28.8-77.8h-33.7z" class="st1" fill="#f15a22"/></g><path transform="translate(-26.7 -272)" id="polygon16" class="st1" fill="#f15a22" d="M490.5 381.5h30.4l30.9-83.1h-30.3z"/><path id="path18" d="M593.5 26.4c-16.3 0-25.8 9.4-30.8 15.4l6.1-15.4h-30.3l-31 83.1h30.4l14.8-39.4c7.6-17.7 23.8-18.8 26.6-18.8h11.5l9.1-24.9z" class="st1" fill="#f15a22"/><path id="path20" d="M432.1 79.6s-4 12.3-21.2 12.3c-2.6 0-6.2-1.5-5.6-6.2.6-5.2 4-7.2 8.3-8.1l20.7-3.9zm-22.9-17c-19.3 2.1-34.8 10.9-36.8 27.4-1 8.2 3 19.5 24.7 19.5 0 0 16.3.6 26.4-6.3l-2.4 6.4h29.7l20.4-55.8 1.1-2.9c2.8-7.6 2.7-24.4-33.1-25.2-15.1-.3-39.8 2.6-54.4 28.1h29.6s4.2-10.9 17.8-10.9c0 0 8.5-.4 9.2 5.2 0 0 1 8.2-11.5 11.3-7.3 1.7-20.7 3.2-20.7 3.2" class="st1" fill="#f15a22"/></svg>